<svg width="21" height="16" viewBox="0 0 21 16" fill="none" xmlns="http://www.w3.org/2000/svg">
  <path d="M10.5 0C4.7 0 0 4.7 0 10.5C0 16.3 4.7 21 10.5 21C16.3 21 21 16.3 21 10.5C21 4.7 16.3 0 10.5 0ZM15.3 15.5L13.2 13.7L11.1 15.8L10.4 13.3L13.8 11.6L15.3 15.5ZM18.3 8.2L17.4 11.6L15.1 13.1L14.1 9.6L16.8 7.6L18.3 8.2ZM14.9 4.7L12.4 10.6L13.3 12.9C13.5 13.5 13 13.8 12.6 13.5L8.7 11.2L6.9 12.2L11.1 15.9L11.8 13.5L8.1 11.3L5.4 9.3L4.5 6.1L9.4 6.6L11.7 5.9L14.9 4.7ZM9.6 6.6L6.9 7.1L5.7 8.8L6.6 12.4L7.5 11.7L8 8.3L9.6 6.6Z" fill="white"/>
</svg>
